<svg xmlns="http://www.w3.org/2000/svg" style="display: none;">
  
    <symbol id="icon-align-left" viewBox="0 0 512 512">
      <path d="m64 43l0 448l363 0l0-448z m320 405l-277 0l0-363l277 0z m-107-299l-128 0l0 43l128 0z m64 64l-192 0l0 22l192 0z m0 43l-192 0l0 21l192 0z m0 43l-192 0l0 21l192 0z m-128 42l-64 0l0 22l64 0z"/>
    </symbol>
  
    <symbol id="icon-bubble-3" viewBox="0 0 512 512">
      <path d="m139 192c17 0 32 14 32 32c0 18-15 32-32 32c-18 0-32-14-32-32c0-18 14-32 32-32z m106 0c18 0 32 14 32 32c0 18-14 32-32 32c-17 0-32-14-32-32c0-18 15-32 32-32z m107 0c18 0 32 14 32 32c0 18-14 32-32 32c-18 0-32-14-32-32c0-18 14-32 32-32z m75-171l-363 0c-35 0-64 29-64 64l0 256c0 36 43 43 64 43l0 128l192-128l171 0c35 0 64-29 64-64l0-235c0-35-29-64-64-64z m21 299c0 12-10 21-21 21l-192 0l-128 107l0-107l-43 0c-12 0-21-9-21-21l0-235c0-11 9-21 21-21l363 0c11 0 21 10 21 21z"/>
    </symbol>
  
    <symbol id="icon-three-bars" viewBox="0 0 512 512">
      <path d="m64 96l0 64 384 0 0-64z m0 192l384 0 0-64-384 0z m0 128l384 0 0-64-384 0z"/>
    </symbol>
  
    <symbol id="icon-user-outline" viewBox="0 0 512 512">
      <path d="m505 426c-36-85-105-125-158-143c24-33 37-81 37-140c1-99-81-126-124-127c-44 0-126 25-127 125c0 59 12 107 35 140c-54 18-123 56-161 141l-9 20l21 8c4 2 109 45 237 46c127 1 233-40 237-41l21-8z m-246-367c9 0 83 4 83 84c-1 64-18 112-48 133l-37 26l-36-27c-29-21-46-70-45-134c0-80 75-82 83-82z m-3 394c-86-1-163-22-199-34c39-69 105-95 156-106l44-9l45 10c50 11 116 39 154 108c-36 12-113 32-200 31z"/>
    </symbol>
  
    <symbol id="icon-windows" viewBox="0 0 512 512">
      <path d="m64 21l0 64l-64 0l0 406l448 0l0-64l64 0l0-406z m341 427l-362 0l0-320l21 0l0 299l341 0z m64-64l-362 0l0-213l362 0z m0-235l-362 0l0-85l362 0z m-170-64l-43 0l0 43l43 0z m-64 0l-43 0l0 43l43 0z m-64 0l-43 0l0 43l43 0z"/>
    </symbol>
  
</svg>
